<?xml version="1.0" encoding="iso-8859-1"?>
<!-- Uploaded to: SVG Repo, www.svgrepo.com, Generator: SVG Repo Mixer Tools -->
<svg version="1.1" id="Layer_1" xmlns="http://www.w3.org/2000/svg" xmlns:xlink="http://www.w3.org/1999/xlink" 
	 viewBox="0 0 512 512" xml:space="preserve">
<rect x="104.441" y="431.454" style="fill:#69351D;" width="303.11" height="33.016"/>
<rect x="258.516" y="431.454" style="fill:#542C19;" width="149.035" height="33.016"/>
<ellipse style="fill:#B1DDF7;" cx="255.996" cy="204.755" rx="129.841" ry="188.247"/>
<path style="fill:#9EC6DD;" d="M154.068,321.356c23.778,43.634,60.598,71.64,101.932,71.64c71.708,0,129.838-84.28,129.838-188.244
	c0-47.811-12.301-91.45-32.555-124.652L154.068,321.356z"/>
<polygon style="fill:#69351D;" points="98.248,512 67.302,500.493 87.937,444.994 87.937,175.973 120.953,175.973 120.953,450.932 
	"/>
<polygon style="fill:#542C19;" points="413.752,512 391.047,450.932 391.047,175.973 424.063,175.973 424.063,444.994 
	444.698,500.493 "/>
<path style="fill:#69351D;" d="M256,409.504c-40.271,0-77.702-22.115-105.398-62.271c-26.405-38.283-40.948-88.885-40.948-142.481
	s14.542-104.198,40.948-142.482C178.298,22.115,215.729,0,256,0s77.702,22.115,105.398,62.271
	c26.405,38.283,40.948,88.885,40.948,142.482s-14.542,104.198-40.948,142.481C333.701,387.389,296.271,409.504,256,409.504z
	 M256,33.016c-29.092,0-56.87,17.047-78.219,48c-22.641,32.826-35.109,76.769-35.109,123.737s12.469,90.91,35.109,123.735
	c21.349,30.953,49.129,48,78.219,48s56.871-17.047,78.219-48c22.64-32.826,35.109-76.769,35.109-123.735
	s-12.469-90.91-35.109-123.737C312.871,50.063,285.09,33.016,256,33.016z"/>
<path style="fill:#542C19;" d="M361.397,62.271C333.701,22.115,296.271,0,256,0v33.016c29.092,0,56.871,17.047,78.219,48
	c22.64,32.826,35.109,76.769,35.109,123.737s-12.469,90.91-35.109,123.735c-21.348,30.953-49.129,48-78.219,48v33.016
	c40.271,0,77.702-22.115,105.398-62.271c26.405-38.283,40.948-88.885,40.948-142.481
	C402.345,151.155,387.802,100.554,361.397,62.271z"/>
</svg>