<?xml version="1.0" encoding="utf-8"?>
<!-- Uploaded to: SVG Repo, www.svgrepo.com, Generator: SVG Repo Mixer Tools -->
<svg width="800px" height="800px" viewBox="0 0 1024 1024" class="icon"  version="1.1" xmlns="http://www.w3.org/2000/svg"><path d="M859.8 449.4H706.6l-30.4-37.1 30.4-46.2v-54c0-21.3-17.4-38.8-38.8-38.8H122.7c-21.3 0-38.8 17.4-38.8 38.8v316.6c0 21.3 17.4 38.8 38.8 38.8h813.6V525.9c0-42.3-34.2-76.5-76.5-76.5z" fill="#FFB819" /><path d="M83.9 315.8h622.7v29.1H83.9zM706.6 512.9H131.7c-8 0-14.5-6.5-14.5-14.5s6.5-14.5 14.5-14.5h574.9c8 0 14.5 6.5 14.5 14.5s-6.5 14.5-14.5 14.5zM706.6 556.2H131.7c-8 0-14.5-6.5-14.5-14.5s6.5-14.5 14.5-14.5h574.9c8 0 14.5 6.5 14.5 14.5s-6.5 14.5-14.5 14.5zM131.7 674.2c0 7.5-6.1 13.6-13.6 13.6H72.9c-7.5 0-13.6-6.1-13.6-13.6v-35.4c0-7.5 6.1-13.6 13.6-13.6h45.2c7.5 0 13.6 6.1 13.6 13.6v35.4zM961.7 674.2c0 7.5-6.1 13.6-13.6 13.6h-39.3c-7.5 0-13.6-6.1-13.6-13.6v-35.4c0-7.5 6.1-13.6 13.6-13.6h39.3c7.5 0 13.6 6.1 13.6 13.6v35.4z" fill="#333E48" /><path d="M823.8 667.5c0-54-43.8-97.9-97.8-97.9s-97.8 43.8-97.8 97.9h195.6z" fill="" /><path d="M725.9 667.5m-82.8 0a82.8 82.8 0 1 0 165.6 0 82.8 82.8 0 1 0-165.6 0Z" fill="#333E48" /><path d="M725.9 667.5m-38 0a38 38 0 1 0 76 0 38 38 0 1 0-76 0Z" fill="#D1D3D3" /><path d="M363.9 667.5c0-54-43.8-97.9-97.8-97.9s-97.8 43.8-97.8 97.9h195.6z" fill="" /><path d="M266.1 667.5m-82.8 0a82.8 82.8 0 1 0 165.6 0 82.8 82.8 0 1 0-165.6 0Z" fill="#333E48" /><path d="M266.1 667.5m-38 0a38 38 0 1 0 76 0 38 38 0 1 0-76 0Z" fill="#D1D3D3" /><path d="M258.1 439.7c0 5.3-4.4 9.7-9.7 9.7h-107c-5.3 0-9.7-4.4-9.7-9.7v-63.9c0-5.3 4.4-9.7 9.7-9.7h107c5.3 0 9.7 4.4 9.7 9.7v63.9zM424.2 439.7c0 5.3-4.4 9.7-9.7 9.7h-107c-5.3 0-9.7-4.4-9.7-9.7v-63.9c0-5.3 4.4-9.7 9.7-9.7h107c5.3 0 9.7 4.4 9.7 9.7v63.9z" fill="#00B3E3" /><path d="M414.5 366.2h-107c-5.3 0-9.7 4.4-9.7 9.7v16.5c0-5.3 4.4-9.7 9.7-9.7h107c5.3 0 9.7 4.4 9.7 9.7v-16.5c0-5.4-4.4-9.7-9.7-9.7z" fill="" /><path d="M590.3 657.9c0 5.3-4.4 9.7-9.7 9.7h-107c-5.3 0-9.7-4.4-9.7-9.7v-282c0-5.3 4.4-9.7 9.7-9.7h107c5.3 0 9.7 4.4 9.7 9.7v282z" fill="#D68231" /><path d="M580.6 366.2h-107c-5.3 0-9.7 4.4-9.7 9.7v16.5c0-5.3 4.4-9.7 9.7-9.7h107c5.3 0 9.7 4.4 9.7 9.7v-16.5c0-5.4-4.3-9.7-9.7-9.7z" fill="" /><path d="M706.6 449.4h-66.8c-5.3 0-9.7-4.4-9.7-9.7v-63.9c0-5.3 4.4-9.7 9.7-9.7h66.8v83.3z" fill="#00B3E3" /><path d="M248.4 366.2h-107c-5.3 0-9.7 4.4-9.7 9.7v16.5c0-5.3 4.4-9.7 9.7-9.7h107c5.3 0 9.7 4.4 9.7 9.7v-16.5c0-5.4-4.4-9.7-9.7-9.7zM639.8 366.2c-5.3 0-9.7 4.4-9.7 9.7v16.5c0-5.3 4.4-9.7 9.7-9.7h66.8v-16.5h-66.8z" fill="" /><path d="M504.7 586.9c-8 0-14.5-6.5-14.5-14.5v-51.7c0-8 6.5-14.5 14.5-14.5s14.5 6.5 14.5 14.5v51.7c0 8-6.5 14.5-14.5 14.5zM549.6 586.9c-8 0-14.5-6.5-14.5-14.5v-51.7c0-8 6.5-14.5 14.5-14.5s14.5 6.5 14.5 14.5v51.7c0 8-6.5 14.5-14.5 14.5zM504.7 478.6c-8 0-14.5-6.5-14.5-14.5v-51.7c0-8 6.5-14.5 14.5-14.5s14.5 6.5 14.5 14.5V464c0 8.1-6.5 14.6-14.5 14.6zM549.6 478.6c-8 0-14.5-6.5-14.5-14.5v-51.7c0-8 6.5-14.5 14.5-14.5s14.5 6.5 14.5 14.5V464c0 8.1-6.5 14.6-14.5 14.6z" fill="#FFFFFF" /><path d="M866.9 578.1h69.4v47.1h-69.4z" fill="#00B3E3" /><path d="M877.9 625.2h-16c-3.7 0-6.8-3-6.8-6.8v-33.6c0-3.7 3-6.8 6.8-6.8h16v47.2z" fill="#FFFFFF" /></svg>