<?xml version="1.0" encoding="iso-8859-1"?>
<!-- Uploaded to: SVG Repo, www.svgrepo.com, Generator: SVG Repo Mixer Tools -->
<svg height="800px" width="800px" version="1.1" id="Layer_1" xmlns="http://www.w3.org/2000/svg" xmlns:xlink="http://www.w3.org/1999/xlink" 
	 viewBox="0 0 512 512" xml:space="preserve">
<path style="fill:#D7EBFF;" d="M289.391,478.609h-66.783c-9.217,0-16.696-7.473-16.696-16.696V317.217
	c0-9.223,7.479-16.696,16.696-16.696h66.783c9.217,0,16.696,7.473,16.696,16.696v144.696
	C306.087,471.136,298.608,478.609,289.391,478.609z"/>
<path style="fill:#BDDEFF;" d="M289.391,300.522H256v178.087h33.391c9.217,0,16.696-7.473,16.696-16.696V317.217
	C306.087,307.995,298.608,300.522,289.391,300.522z"/>
<path style="fill:#736056;" d="M356.174,512H155.826c-9.217,0-16.696-7.473-16.696-16.696c0-27.619,22.468-50.087,50.087-50.087
	h133.565c27.619,0,50.087,22.468,50.087,50.087C372.87,504.527,365.391,512,356.174,512z"/>
<path style="fill:#3AACE6;" d="M339.478,333.913H239.304c-64.445,0-116.87-52.429-116.87-116.87V116.87
	C122.435,52.429,174.859,0,239.304,0h100.174c27.619,0,50.087,22.468,50.087,50.087v233.739
	C389.565,311.445,367.097,333.913,339.478,333.913z"/>
<path style="fill:#2B9FD9;" d="M339.478,0H256v333.913h83.478c27.619,0,50.087-22.468,50.087-50.087V50.087
	C389.565,22.468,367.097,0,339.478,0z"/>
<path style="fill:#EDF0F2;" d="M294.712,259.395c-4.319,1.158-8.671,1.714-12.956,1.714c-9.205,0-18.087-2.56-25.756-7.168
	c-10.763-6.456-19.133-16.918-22.628-29.963l-25.934-96.757c-0.301-1.113-0.479-2.237-0.545-3.339
	c-5.02-25.589,10.407-51.155,35.962-58.012c4.63-1.247,9.338-0.378,13.145,1.992V67.84c3.439,2.07,6.233,5.766,7.313,9.839
	l8.648,32.256c2.382,8.938-2.961,18.087-11.821,20.447L256,131.495l-11.987,3.206L256,179.411l5.309,19.801l16.117-4.319
	c8.86-2.393,18.042,2.861,20.458,11.798l8.637,32.256C308.903,247.886,303.571,257.035,294.712,259.395z"/>
<g>
	<path style="fill:#DAE1E6;" d="M294.712,259.395c-4.319,1.158-8.671,1.714-12.956,1.714c-9.205,0-18.087-2.56-25.756-7.168v-74.529
		l5.309,19.801l16.117-4.319c8.86-2.393,18.042,2.861,20.458,11.798l8.637,32.256C308.903,247.886,303.571,257.035,294.712,259.395z
		"/>
	<path style="fill:#DAE1E6;" d="M260.141,130.382L256,131.495V67.84c3.439,2.07,6.233,5.766,7.313,9.839l8.648,32.256
		C274.343,118.873,269,128.022,260.141,130.382z"/>
</g>
<path style="fill:#665247;" d="M322.783,445.217H256V512h100.174c9.217,0,16.696-7.473,16.696-16.696
	C372.87,467.685,350.402,445.217,322.783,445.217z"/>
</svg>