<?xml version="1.0" encoding="utf-8"?>
<!-- Uploaded to: SVG Repo, www.svgrepo.com, Generator: SVG Repo Mixer Tools -->
<svg width="800px" height="800px" viewBox="0 0 1024 1024" class="icon"  version="1.1" xmlns="http://www.w3.org/2000/svg"><path d="M938.666667 290.133333C938.666667 157.866667 910.933333 85.333333 846.933333 85.333333c-61.866667 0-70.4 68.266667-113.066666 149.333334-12.8 2.133333-23.466667 12.8-23.466667 27.733333 0 4.266667 0 8.533333 2.133333 10.666667-14.933333 25.6-29.866667 49.066667-44.8 72.533333h-4.266666c-14.933333 0-27.733333 12.8-27.733334 27.733333 0 6.4 2.133333 10.666667 4.266667 14.933334-27.733333 38.4-57.6 74.666667-85.333333 106.666666h-4.266667c-14.933333 0-27.733333 12.8-27.733333 27.733334v6.4c-29.866667 29.866667-57.6 55.466667-85.333334 76.8-12.8 0-25.6 8.533333-27.733333 21.333333-27.733333 19.2-53.333333 38.4-78.933333 53.333333-2.133333 0-4.266667-2.133333-6.4-2.133333-12.8 0-25.6 8.533333-27.733334 21.333333-25.6 14.933333-49.066667 27.733333-70.4 38.4-4.266667-2.133333-10.666667-4.266667-14.933333-4.266666-14.933333 0-27.733333 12.8-27.733333 27.733333C121.6 793.6 85.333333 817.066667 85.333333 855.466667c0 27.733333 19.2 53.333333 59.733334 68.266666 6.4 8.533333 14.933333 14.933333 25.6 14.933334 6.4 0 10.666667-2.133333 14.933333-4.266667 17.066667 2.133333 36.266667 4.266667 57.6 4.266667 29.866667 0 64-4.266667 96-8.533334 4.266667 6.4 12.8 8.533333 21.333333 8.533334 12.8 0 23.466667-8.533333 27.733334-19.2 36.266667-10.666667 74.666667-23.466667 110.933333-38.4 4.266667 2.133333 8.533333 2.133333 12.8 2.133333 12.8 0 25.6-8.533333 27.733333-21.333333 23.466667-10.666667 46.933333-25.6 68.266667-38.4 4.266667 4.266667 10.666667 4.266667 17.066667 4.266666 14.933333 0 27.733333-12.8 27.733333-27.733333v-6.4c19.2-12.8 36.266667-27.733333 55.466667-42.666667 4.266667 2.133333 8.533333 2.133333 12.8 2.133334 14.933333 0 27.733333-12.8 27.733333-27.733334 0-4.266667 0-6.4-2.133333-10.666666 17.066667-17.066667 34.133333-36.266667 51.2-55.466667 14.933333 0 27.733333-12.8 27.733333-27.733333v-6.4c17.066667-25.6 34.133333-51.2 49.066667-76.8 14.933333 0 27.733333-12.8 27.733333-27.733334 0-6.4-2.133333-12.8-6.4-17.066666 12.8-27.733333 21.333333-57.6 29.866667-87.466667 8.533333-4.266667 14.933333-12.8 14.933333-23.466667 0-6.4-2.133333-12.8-6.4-17.066666 2.133333-27.733333 4.266667-55.466667 4.266667-85.333334z" fill="#4CAF50" /><path d="M938.666667 290.133333C710.4 881.066667 211.2 889.6 85.333333 855.466667c0 27.733333 19.2 53.333333 59.733334 68.266666 6.4 8.533333 14.933333 14.933333 25.6 14.933334 6.4 0 10.666667-2.133333 14.933333-4.266667 17.066667 2.133333 36.266667 4.266667 57.6 4.266667 29.866667 0 64-4.266667 96-8.533334 4.266667 6.4 12.8 8.533333 21.333333 8.533334 12.8 0 23.466667-8.533333 27.733334-19.2 36.266667-10.666667 74.666667-23.466667 110.933333-38.4 4.266667 2.133333 8.533333 2.133333 12.8 2.133333 12.8 0 25.6-8.533333 27.733333-21.333333 23.466667-10.666667 46.933333-25.6 68.266667-38.4 4.266667 4.266667 10.666667 4.266667 17.066667 4.266666 14.933333 0 27.733333-12.8 27.733333-27.733333v-6.4c19.2-12.8 36.266667-27.733333 55.466667-42.666667 4.266667 2.133333 8.533333 2.133333 12.8 2.133334 14.933333 0 27.733333-12.8 27.733333-27.733334 0-4.266667 0-6.4-2.133333-10.666666 17.066667-17.066667 34.133333-36.266667 51.2-55.466667 14.933333 0 27.733333-12.8 27.733333-27.733333v-6.4c17.066667-25.6 34.133333-51.2 49.066667-76.8 14.933333 0 27.733333-12.8 27.733333-27.733334 0-6.4-2.133333-12.8-6.4-17.066666 12.8-27.733333 21.333333-57.6 29.866667-87.466667 8.533333-4.266667 14.933333-12.8 14.933333-23.466667 0-6.4-2.133333-12.8-6.4-17.066666 2.133333-27.733333 4.266667-55.466667 4.266667-85.333334z" fill="#388E3C" /><path d="M810.666667 256c12.8 0 21.333333 8.533333 21.333333 21.333333s-10.666667 21.333333-21.333333 21.333334c-12.8 0-21.333333-8.533333-21.333334-21.333334s8.533333-21.333333 21.333334-21.333333z m-42.666667 234.666667c12.8 0 21.333333 8.533333 21.333333 21.333333s-8.533333 21.333333-21.333333 21.333333-21.333333-8.533333-21.333333-21.333333 8.533333-21.333333 21.333333-21.333333z m-64-64c12.8 0 21.333333 8.533333 21.333333 21.333333s-10.666667 21.333333-21.333333 21.333333c-12.8 0-21.333333-8.533333-21.333333-21.333333s8.533333-21.333333 21.333333-21.333333z m-85.333333 213.333333c12.8 0 21.333333 8.533333 21.333333 21.333333s-8.533333 21.333333-21.333333 21.333334-21.333333-8.533333-21.333334-21.333334 8.533333-21.333333 21.333334-21.333333z m-85.333334 21.333333c12.8 0 21.333333 8.533333 21.333334 21.333334s-8.533333 21.333333-21.333334 21.333333-21.333333-8.533333-21.333333-21.333333 8.533333-21.333333 21.333333-21.333334z m-128 106.666667c12.8 0 21.333333 8.533333 21.333334 21.333333s-8.533333 21.333333-21.333334 21.333334-21.333333-8.533333-21.333333-21.333334 8.533333-21.333333 21.333333-21.333333z m-149.333333 21.333333c12.8 0 21.333333 8.533333 21.333333 21.333334s-8.533333 21.333333-21.333333 21.333333-21.333333-8.533333-21.333333-21.333333 8.533333-21.333333 21.333333-21.333334z" fill="#AED581" /></svg>