<?xml version="1.0" encoding="utf-8"?>
<!-- Uploaded to: SVG Repo, www.svgrepo.com, Generator: SVG Repo Mixer Tools -->
<svg width="800px" height="800px" viewBox="0 0 1024 1024" class="icon"  version="1.1" xmlns="http://www.w3.org/2000/svg"><path d="M909.7 531.5c-2.9-26.9-21.7-48.1-48.1-48.1H151.5c-26.5 0-48.1 21.7-48.1 48.1v97.4h241.4l19.5-24.9h271.9l62.9 24.9h222.2l-11.6-97.4z" fill="#333E48" /><path d="M706.8 391.2c-14.1-22.4-47.4-40.7-73.8-40.7H292.9c-26.5 0-54.1 20.8-61.4 46.3L206.8 483c0 0.1-0.1 0.3-0.1 0.4h45.7c0 20.5-5.8 110.7 52.9 145.5H765V483.3l-58.2-92.1z" fill="#D1D3D3" /><path d="M910.7 540h-57.6v46.8h63.1z" fill="#FFB819" /><path d="M864 586.8h-15.9c-3.7 0-6.7-3-6.7-6.7v-33.4c0-3.7 3-6.7 6.7-6.7H864v46.8z" fill="#FFFFFF" /><path d="M286.2 523.5c-60.9 0-111.1 46.1-117.5 105.4h235c-6.4-59.3-56.6-105.4-117.5-105.4z" fill="" /><path d="M286.2 641.7m-97 0a97 97 0 1 0 194 0 97 97 0 1 0-194 0Z" fill="#333E48" /><path d="M286.2 641.7m-49.2 0a49.2 49.2 0 1 0 98.4 0 49.2 49.2 0 1 0-98.4 0Z" fill="#A4A9AD" /><path d="M713 523.5c-60.9 0-111.1 46.1-117.5 105.4h235C824.1 569.6 774 523.5 713 523.5z" fill="" /><path d="M713 641.7m-97 0a97 97 0 1 0 194 0 97 97 0 1 0-194 0Z" fill="#333E48" /><path d="M713 641.7m-49.2 0a49.2 49.2 0 1 0 98.4 0 49.2 49.2 0 1 0-98.4 0Z" fill="#A4A9AD" /><path d="M959.3 633.8c0 9.8-8.1 17.9-17.9 17.9h-40.3c-9.8 0-17.9-8.1-17.9-17.9v-29.1c0-9.8 8.1-17.9 17.9-17.9h40.3c9.9 0 17.9 8.1 17.9 17.9v29.1zM141.4 633.8c0 9.8-8.1 17.9-17.9 17.9H83.2c-9.8 0-17.9-8.1-17.9-17.9v-29.1c0-9.8 8.1-17.9 17.9-17.9h40.3c9.8 0 17.9 8.1 17.9 17.9v29.1z" fill="#A4A9AD" /><path d="M103.4 540h52.1v46.8h-52.1z" fill="#FFB819" /><path d="M144.5 586.8h15.9c3.7 0 6.7-3 6.7-6.7v-33.4c0-3.7-3-6.7-6.7-6.7h-15.9v46.8z" fill="#FFFFFF" /><path d="M487.8 409.3c0-10.5 8.6-19.1 19.1-19.1h128.8c10.5 0 23.8 7.2 29.5 16L695 452c5.7 8.8 1.8 16-8.7 16H506.9c-10.5 0-19.1-8.6-19.1-19.1v-39.6z" fill="#333E48" /><path d="M665.2 406.2c-5.7-8.8-19-16-29.5-16H506.9c-10.5 0-19.1 8.6-19.1 19.1v17.8c0-10.5 8.6-19.1 19.1-19.1h144c6.3 0 13.6 2.6 19.7 6.6l-5.4-8.4z" fill="" /><path d="M295.6 408.4c3.2-10 14.5-18.2 25-18.2h108.7c10.5 0 19.1 8.6 19.1 19.1v39.6c0 10.5-8.6 19.1-19.1 19.1H295.5c-10.5 0-16.5-8.2-13.3-18.2l13.4-41.4z" fill="#333E48" /><path d="M429.2 390.2H320.5c-10.5 0-21.7 8.2-25 18.2l-3.2 9.9c5.1-6.1 13-10.3 20.5-10.3h116.3c10.5 0 19.1 8.6 19.1 19.1v-17.8c0.1-10.5-8.5-19.1-19-19.1z" fill="" /><path d="M535.4 305.4c0-10.5-8.6-19.1-19.1-19.1h-92.8c-10.5 0-19.1 8.6-19.1 19.1v25.9c0 10.5 8.6 19.1 19.1 19.1h92.8c10.5 0 19.1-8.6 19.1-19.1v-25.9z" fill="#FF5959" /><path d="M475 586c-3.1-1.1-8.1-1.1-11.2 0l-23.8 8.5c-3.1 1.1-5.5-0.7-5.4-4l0.7-25.2c0.1-3.3-1.5-8.1-3.5-10.7l-15.4-20c-2-2.6-1.1-5.5 2.1-6.4l24.2-7.1c3.1-0.9 7.2-3.9 9.1-6.6l14.3-20.8c1.9-2.7 4.9-2.7 6.7 0l14.3 20.8c1.9 2.7 5.9 5.7 9.1 6.6l24.2 7.1c3.1 0.9 4.1 3.8 2.1 6.4l-15.4 20c-2 2.6-3.6 7.4-3.5 10.7l0.7 25.2c0.1 3.3-2.4 5-5.4 4L475 586z" fill="#D68231" /><path d="M382.9 522.7H300c-7.9 0-14.3-6.4-14.3-14.3s6.4-14.3 14.3-14.3h82.9c7.9 0 14.3 6.4 14.3 14.3s-6.4 14.3-14.3 14.3zM665.1 522.7h-102c-7.9 0-14.3-6.4-14.3-14.3s6.4-14.3 14.3-14.3h102c7.9 0 14.3 6.4 14.3 14.3s-6.4 14.3-14.3 14.3z" fill="" /></svg>