<?xml version="1.0" encoding="UTF-8"?>
<svg id="Camada_1" data-name="Camada 1" xmlns="http://www.w3.org/2000/svg" xmlns:xlink="http://www.w3.org/1999/xlink" viewBox="0 0 80 80">
  <defs>
    <style>
      .cls-1 {
        fill: #3d465d;
      }

      .cls-1, .cls-2 {
        stroke-width: 0px;
      }

      .cls-2 {
        fill: #fff;
      }
    </style>
  </defs>
  <image width="80" height="80" xlink:href="../../../../STUFF/kenney_shape-characters/PNG/Default/blue_body_square.png"/>
  <path class="cls-2" d="M25.16,33.57c-2.77,0-5.12.98-7.05,2.95-1.97,1.97-2.95,4.32-2.95,7.05s.98,5.12,2.95,7.05c1.93,1.97,4.28,2.95,7.05,2.95s5.12-.98,7.05-2.95c1.97-1.93,2.95-4.28,2.95-7.05s-.98-5.08-2.95-7.05c-1.93-1.97-4.28-2.95-7.05-2.95Z"/>
  <path class="cls-1" d="M25.16,37.57c-1.63,0-3.03.6-4.2,1.8-1.2,1.17-1.8,2.57-1.8,4.2s.6,3.08,1.8,4.25c1.17,1.17,2.57,1.75,4.2,1.75s3.08-.58,4.25-1.75c1.17-1.17,1.75-2.58,1.75-4.25s-.58-3.03-1.75-4.2c-1.17-1.2-2.58-1.8-4.25-1.8Z"/>
  <path class="cls-2" d="M55.16,33.57c-2.77,0-5.12.98-7.05,2.95-1.97,1.97-2.95,4.32-2.95,7.05s.98,5.12,2.95,7.05c1.93,1.97,4.28,2.95,7.05,2.95s5.12-.98,7.05-2.95c1.97-1.93,2.95-4.28,2.95-7.05s-.98-5.08-2.95-7.05c-1.93-1.97-4.28-2.95-7.05-2.95Z"/>
  <path class="cls-1" d="M55.16,37.57c-1.63,0-3.03.6-4.2,1.8-1.2,1.17-1.8,2.57-1.8,4.2s.6,3.08,1.8,4.25c1.17,1.17,2.57,1.75,4.2,1.75s3.08-.58,4.25-1.75c1.17-1.17,1.75-2.58,1.75-4.25s-.58-3.03-1.75-4.2c-1.17-1.2-2.58-1.8-4.25-1.8Z"/>
  <path class="cls-1" d="M12.51,26.27c-.57.13-.97.43-1.2.9-.3.47-.38.98-.25,1.55l1.05,3.85c.13.57.45.97.95,1.2.43.3.93.38,1.5.25l19.3-5.2c.53-.13.95-.45,1.25-.95.27-.43.33-.93.2-1.5l-1.05-3.85c-.13-.57-.43-.98-.9-1.25-.5-.27-1.02-.33-1.55-.2l-19.3,5.2Z"/>
  <path class="cls-1" d="M48.51,21.07c-.53-.13-1.05-.07-1.55.2-.47.27-.77.68-.9,1.25l-1.05,3.85c-.13.57-.07,1.07.2,1.5.3.5.72.82,1.25.95l19.3,5.2c.57.13,1.07.05,1.5-.25.5-.23.82-.63.95-1.2l1.05-3.85c.13-.57.05-1.08-.25-1.55-.23-.47-.63-.77-1.2-.9l-19.3-5.2Z"/>
  <path class="cls-1" d="M49.51,59.07c-.37-.3-.75-.6-1.15-.9-2.27-1.73-5-2.6-8.2-2.6s-6.05.87-8.35,2.6c0,.03-.02.05-.05.05-.43.33-.8.68-1.1,1.05-.37.4-.53.88-.5,1.45.03.53.27.98.7,1.35.4.37.88.53,1.45.5.53-.03.98-.25,1.35-.65.17-.2.35-.38.55-.55,1.63-1.2,3.62-1.8,5.95-1.8s4.2.6,5.8,1.8l.05.05c.3.2.58.42.85.65.4.37.88.53,1.45.5.53-.03.98-.25,1.35-.65.37-.43.53-.92.5-1.45-.03-.57-.25-1.03-.65-1.4Z"/>
</svg>