<?xml version="1.0" encoding="UTF-8"?>
<svg id="Camada_3" data-name="Camada 3" xmlns="http://www.w3.org/2000/svg" xmlns:xlink="http://www.w3.org/1999/xlink" viewBox="0 0 80 80">
  <defs>
    <style>
      .cls-1 {
        fill: url(#Gradiente_sem_nome_179);
      }

      .cls-1, .cls-2, .cls-3, .cls-4 {
        stroke-width: 0px;
      }

      .cls-2 {
        fill: #3d465d;
      }

      .cls-3 {
        fill: #fff;
      }

      .cls-4 {
        fill: url(#Gradiente_sem_nome_178);
      }
    </style>
    <linearGradient id="Gradiente_sem_nome_178" data-name="Gradiente sem nome 178" x1="-30" y1="332" x2="-30" y2="252" gradientTransform="translate(70 332) scale(1 -1)" gradientUnits="userSpaceOnUse">
      <stop offset="0" stop-color="#7baaeb"/>
      <stop offset="1" stop-color="#6c75e9"/>
    </linearGradient>
    <linearGradient id="Gradiente_sem_nome_179" data-name="Gradiente sem nome 179" x1="-30" y1="332.25" x2="-30" y2="288.75" gradientTransform="translate(70 332) scale(1 -1)" gradientUnits="userSpaceOnUse">
      <stop offset="0" stop-color="#95c2f0"/>
      <stop offset="1" stop-color="#6b8ee9"/>
    </linearGradient>
  </defs>
  <g id="blue_body_square" data-name="blue body square">
    <g id="Symbol_44_0_Layer0_0_FILL" data-name="Symbol 44 0 Layer0 0 FILL">
      <path class="cls-4" d="M80,14c-.17-6.67-3.68-10-10.55-10H10.5C3.67,4,.17,7.33,0,14v55.95c.17,6.7,3.67,10.05,10.5,10.05h58.95c6.87,0,10.38-3.35,10.55-10.05V14Z"/>
      <path class="cls-1" d="M69.45,4c6.87,0,10.38,3.33,10.55,10v-3.5c0-7-3.52-10.5-10.55-10.5H10.5C3.5,0,0,3.5,0,10.5v3.5C.17,7.33,3.67,4,10.5,4h58.95Z"/>
    </g>
  </g>
  <g id="face_e" data-name="face e">
    <g id="Symbol_98_0_Layer0_0_MEMBER_0_FILL" data-name="Symbol 98 0 Layer0 0 MEMBER 0 FILL">
      <path class="cls-3" d="M25,28.83c-2.77,0-5.12.98-7.05,2.95-1.97,1.97-2.95,4.32-2.95,7.05s.98,5.12,2.95,7.05c1.93,1.97,4.28,2.95,7.05,2.95s5.12-.98,7.05-2.95c1.97-1.93,2.95-4.28,2.95-7.05s-.98-5.08-2.95-7.05c-1.93-1.97-4.28-2.95-7.05-2.95Z"/>
    </g>
    <g id="Symbol_98_0_Layer0_0_MEMBER_1_FILL" data-name="Symbol 98 0 Layer0 0 MEMBER 1 FILL">
      <path class="cls-2" d="M25,32.83c-1.63,0-3.03.6-4.2,1.8-1.2,1.17-1.8,2.57-1.8,4.2s.6,3.08,1.8,4.25c1.17,1.17,2.57,1.75,4.2,1.75s3.08-.58,4.25-1.75c1.17-1.17,1.75-2.58,1.75-4.25s-.58-3.03-1.75-4.2c-1.17-1.2-2.58-1.8-4.25-1.8Z"/>
    </g>
    <g id="Symbol_98_0_Layer0_1_MEMBER_0_FILL" data-name="Symbol 98 0 Layer0 1 MEMBER 0 FILL">
      <path class="cls-3" d="M55,28.83c-2.77,0-5.12.98-7.05,2.95-1.97,1.97-2.95,4.32-2.95,7.05s.98,5.12,2.95,7.05c1.93,1.97,4.28,2.95,7.05,2.95s5.12-.98,7.05-2.95c1.97-1.93,2.95-4.28,2.95-7.05s-.98-5.08-2.95-7.05c-1.93-1.97-4.28-2.95-7.05-2.95Z"/>
    </g>
    <g id="Symbol_98_0_Layer0_1_MEMBER_1_FILL" data-name="Symbol 98 0 Layer0 1 MEMBER 1 FILL">
      <path class="cls-2" d="M55,32.83c-1.63,0-3.03.6-4.2,1.8-1.2,1.17-1.8,2.57-1.8,4.2s.6,3.08,1.8,4.25c1.17,1.17,2.57,1.75,4.2,1.75s3.08-.58,4.25-1.75c1.17-1.17,1.75-2.58,1.75-4.25s-.58-3.03-1.75-4.2c-1.17-1.2-2.58-1.8-4.25-1.8Z"/>
    </g>
    <g id="Symbol_98_0_Layer0_2_FILL" data-name="Symbol 98 0 Layer0 2 FILL">
      <path class="cls-2" d="M13.15,33.23c.23.47.63.77,1.2.9l19.3,5.2c.53.13,1.05.07,1.55-.2.47-.27.77-.68.9-1.25l1.05-3.85c.13-.57.07-1.07-.2-1.5-.3-.5-.72-.82-1.25-.95l-19.3-5.2c-.57-.13-1.07-.05-1.5.25-.5.23-.82.63-.95,1.2l-1.05,3.85c-.13.57-.05,1.08.25,1.55Z"/>
    </g>
    <g id="Symbol_98_0_Layer0_3_FILL" data-name="Symbol 98 0 Layer0 3 FILL">
      <path class="cls-2" d="M44.3,25.53c-.53.17-.93.5-1.2,1-.3.43-.38.93-.25,1.5l1.05,3.85c.13.57.45.98.95,1.25.47.27.97.32,1.5.15l19.3-5.15c.57-.13.98-.45,1.25-.95.27-.43.33-.93.2-1.5l-1.05-3.85c-.13-.57-.43-.98-.9-1.25-.47-.27-.98-.33-1.55-.2l-19.3,5.15Z"/>
    </g>
    <g id="Symbol_98_0_Layer0_4_FILL" data-name="Symbol 98 0 Layer0 4 FILL">
      <path class="cls-2" d="M49.95,52.98c-.47-.3-.98-.37-1.55-.2-.53.13-.95.42-1.25.85-.27.37-.65.72-1.15,1.05-1.23.77-2.68,1.15-4.35,1.15-.77,0-1.48-.07-2.15-.2-.57-.1-1.08,0-1.55.3-.47.23-.77.63-.9,1.2-.13.5-.03.98.3,1.45.27.4.7.67,1.3.8.9.2,1.9.3,3,.3,2.57,0,4.78-.6,6.65-1.8l-.05.05c1.13-.7,1.97-1.48,2.5-2.35.27-.47.33-.95.2-1.45-.17-.53-.5-.92-1-1.15Z"/>
    </g>
  </g>
</svg>