<?xml version="1.0" encoding="UTF-8"?>
<svg id="Camada_6" data-name="Camada 6" xmlns="http://www.w3.org/2000/svg" xmlns:xlink="http://www.w3.org/1999/xlink" viewBox="0 0 32 24">
  <defs>
    <style>
      .cls-1 {
        fill: url(#Gradiente_sem_nome_15);
      }

      .cls-1, .cls-2, .cls-3, .cls-4, .cls-5, .cls-6, .cls-7, .cls-8, .cls-9, .cls-10, .cls-11, .cls-12, .cls-13, .cls-14, .cls-15, .cls-16, .cls-17, .cls-18, .cls-19, .cls-20, .cls-21, .cls-22 {
        stroke-width: 0px;
      }

      .cls-1, .cls-2, .cls-4, .cls-5, .cls-8, .cls-10, .cls-14, .cls-17, .cls-20, .cls-22 {
        isolation: isolate;
      }

      .cls-1, .cls-2, .cls-4, .cls-5, .cls-8, .cls-14, .cls-22 {
        opacity: .5;
      }

      .cls-2 {
        fill: url(#Gradiente_sem_nome_17);
      }

      .cls-3 {
        fill: url(#Gradiente_sem_nome_3-3);
      }

      .cls-4 {
        fill: url(#Gradiente_sem_nome_8);
      }

      .cls-5 {
        fill: url(#Gradiente_sem_nome_11-2);
      }

      .cls-6 {
        fill: url(#Gradiente_sem_nome_3-2);
      }

      .cls-7 {
        fill: #ef4444;
      }

      .cls-8 {
        fill: url(#Gradiente_sem_nome_4);
      }

      .cls-9 {
        fill: none;
      }

      .cls-10 {
        fill: url(#Gradiente_sem_nome_17-4);
      }

      .cls-10, .cls-17, .cls-20 {
        opacity: .25;
      }

      .cls-23 {
        clip-path: url(#clippath-1);
      }

      .cls-11 {
        fill: url(#Gradiente_sem_nome_13);
      }

      .cls-12 {
        fill: url(#Gradiente_sem_nome_13-3);
      }

      .cls-13 {
        fill: url(#Gradiente_sem_nome_13-2);
      }

      .cls-14 {
        fill: url(#Gradiente_sem_nome_17-2);
      }

      .cls-15 {
        fill: url(#Gradiente_sem_nome_6);
      }

      .cls-16 {
        fill: #dc2626;
      }

      .cls-17 {
        fill: url(#Gradiente_sem_nome_18);
      }

      .cls-24 {
        clip-path: url(#clippath);
      }

      .cls-18 {
        fill: #771818;
      }

      .cls-19 {
        fill: url(#Gradiente_sem_nome_7);
      }

      .cls-20 {
        fill: url(#Gradiente_sem_nome_17-3);
      }

      .cls-21 {
        fill: url(#Gradiente_sem_nome_3);
      }

      .cls-22 {
        fill: url(#Gradiente_sem_nome_11);
      }
    </style>
    <clipPath id="clippath">
      <rect class="cls-9" y="0" width="32" height="24"/>
    </clipPath>
    <clipPath id="clippath-1">
      <rect class="cls-9" y="0" width="32" height="24"/>
    </clipPath>
    <linearGradient id="Gradiente_sem_nome_3" data-name="Gradiente sem nome 3" x1="12.7" y1="14.35" x2="12.45" y2="16.13" gradientTransform="translate(-404.96 514.34) scale(33.33 -33.33)" gradientUnits="userSpaceOnUse">
      <stop offset="0" stop-color="red"/>
      <stop offset=".23" stop-color="#ff1500"/>
      <stop offset=".74" stop-color="#ff3d00"/>
      <stop offset="1" stop-color="#ff4c00"/>
    </linearGradient>
    <linearGradient id="Gradiente_sem_nome_3-2" data-name="Gradiente sem nome 3" x1="12.98" y1="14.39" x2="12.74" y2="16.17" xlink:href="#Gradiente_sem_nome_3"/>
    <linearGradient id="Gradiente_sem_nome_3-3" data-name="Gradiente sem nome 3" x1="12.54" y1="14.33" x2="12.3" y2="16.11" xlink:href="#Gradiente_sem_nome_3"/>
    <linearGradient id="Gradiente_sem_nome_4" data-name="Gradiente sem nome 4" x1="12.69" y1="14.66" x2="12.15" y2="16.18" gradientTransform="translate(-404.96 514.34) scale(33.33 -33.33)" gradientUnits="userSpaceOnUse">
      <stop offset="0" stop-color="#ff8000"/>
      <stop offset=".64" stop-color="#ff5b00"/>
      <stop offset="1" stop-color="#ff4c00"/>
    </linearGradient>
    <radialGradient id="Gradiente_sem_nome_13" data-name="Gradiente sem nome 13" cx="-.32" cy="23.22" fx="-.32" fy="23.22" r=".07" gradientTransform="translate(133.28 7879.35) scale(340.02 -340.02)" gradientUnits="userSpaceOnUse">
      <stop offset="0" stop-color="#ffed1c" stop-opacity=".6"/>
      <stop offset=".95" stop-color="#ffed1c" stop-opacity=".03"/>
      <stop offset=".99" stop-color="#ffed1c" stop-opacity="0"/>
    </radialGradient>
    <linearGradient id="Gradiente_sem_nome_6" data-name="Gradiente sem nome 6" x1="12.48" y1="15.68" x2="12.68" y2="14.59" gradientTransform="translate(-404.96 514.34) scale(33.33 -33.33)" gradientUnits="userSpaceOnUse">
      <stop offset="0" stop-color="#ff8000"/>
      <stop offset=".02" stop-color="#fe7f02" stop-opacity=".98"/>
      <stop offset=".67" stop-color="#ed582a" stop-opacity=".33"/>
      <stop offset="1" stop-color="#e74939" stop-opacity="0"/>
    </linearGradient>
    <linearGradient id="Gradiente_sem_nome_7" data-name="Gradiente sem nome 7" x1="12.63" y1="14.5" x2="12.67" y2="15.27" gradientTransform="translate(-404.96 514.34) scale(33.33 -33.33)" gradientUnits="userSpaceOnUse">
      <stop offset="0" stop-color="#ffbc47"/>
      <stop offset=".19" stop-color="#ffb137" stop-opacity=".81"/>
      <stop offset=".72" stop-color="#ff940f" stop-opacity=".28"/>
      <stop offset="1" stop-color="#ff8900" stop-opacity="0"/>
    </linearGradient>
    <radialGradient id="Gradiente_sem_nome_8" data-name="Gradiente sem nome 8" cx=".09" cy="25.23" fx=".09" fy="25.23" r=".07" gradientTransform="translate(-8.39 5411.36) scale(263.02 -213.52)" gradientUnits="userSpaceOnUse">
      <stop offset="0" stop-color="#ffbc47"/>
      <stop offset=".29" stop-color="#ffbf4b" stop-opacity=".71"/>
      <stop offset=".56" stop-color="#fec656" stop-opacity=".44"/>
      <stop offset=".82" stop-color="#fcd368" stop-opacity=".18"/>
      <stop offset="1" stop-color="#fbe07a" stop-opacity="0"/>
    </radialGradient>
    <radialGradient id="Gradiente_sem_nome_11" data-name="Gradiente sem nome 11" cx=".09" cy="25.22" fx=".09" fy="25.22" r=".07" gradientTransform="translate(-8.39 5242.63) scale(254.92 -206.94)" gradientUnits="userSpaceOnUse">
      <stop offset="0" stop-color="#fff"/>
      <stop offset="1" stop-color="#fff" stop-opacity="0"/>
    </radialGradient>
    <radialGradient id="Gradiente_sem_nome_13-2" data-name="Gradiente sem nome 13" cx=".41" cy="24.81" fx=".41" fy="24.81" r=".07" gradientTransform="translate(-120.16 9073.41) scale(313.15 -364.6)" xlink:href="#Gradiente_sem_nome_13"/>
    <radialGradient id="Gradiente_sem_nome_11-2" data-name="Gradiente sem nome 11" cx="-2.56" cy="24.14" fx="-2.56" fy="24.14" r=".07" gradientTransform="translate(-1934.09 178.83) rotate(92.89) scale(98.97 -80.34)" xlink:href="#Gradiente_sem_nome_11"/>
    <radialGradient id="Gradiente_sem_nome_17" data-name="Gradiente sem nome 17" cx="-.24" cy="22.7" fx="-.24" fy="22.7" r=".07" gradientTransform="translate(46.33 2543.26) scale(112.34 -112.34)" gradientUnits="userSpaceOnUse">
      <stop offset="0" stop-color="#ffed1c"/>
      <stop offset=".2" stop-color="#ffee2b" stop-opacity=".8"/>
      <stop offset=".58" stop-color="#fff254" stop-opacity=".42"/>
      <stop offset="1" stop-color="#fff686" stop-opacity="0"/>
    </radialGradient>
    <radialGradient id="Gradiente_sem_nome_13-3" data-name="Gradiente sem nome 13" cx="0" cy="15.57" fx="0" fy="15.57" r=".07" gradientTransform="translate(274.26 175.55) rotate(-56.41) scale(91 -20.67)" xlink:href="#Gradiente_sem_nome_13"/>
    <radialGradient id="Gradiente_sem_nome_17-2" data-name="Gradiente sem nome 17" cx="1.84" cy="28.33" fx="1.84" fy="28.33" r=".07" gradientTransform="translate(-907.41 -239.8) rotate(95.06) scale(81.77 -32.9)" xlink:href="#Gradiente_sem_nome_17"/>
    <radialGradient id="Gradiente_sem_nome_15" data-name="Gradiente sem nome 15" cx="-.01" cy="23.54" fx="-.01" fy="23.54" r=".07" gradientTransform="translate(21.37 8245.49) scale(350.53 -350.53)" gradientUnits="userSpaceOnUse">
      <stop offset="0" stop-color="#ff4c00"/>
      <stop offset=".14" stop-color="#ff5b0c" stop-opacity=".87"/>
      <stop offset=".39" stop-color="#ff842c" stop-opacity=".61"/>
      <stop offset=".75" stop-color="#ffc45f" stop-opacity=".25"/>
      <stop offset="1" stop-color="#fff686" stop-opacity="0"/>
    </radialGradient>
    <radialGradient id="Gradiente_sem_nome_17-3" data-name="Gradiente sem nome 17" cx="-.82" cy="24.56" fx="-.82" fy="24.56" r=".07" gradientTransform="translate(180.8 4582.06) scale(186.06 -186.06)" xlink:href="#Gradiente_sem_nome_17"/>
    <radialGradient id="Gradiente_sem_nome_17-4" data-name="Gradiente sem nome 17" cx="1.02" cy="24.84" fx="1.02" fy="24.84" r=".07" gradientTransform="translate(-200.06 4942.51) scale(198.31 -198.31)" xlink:href="#Gradiente_sem_nome_17"/>
    <radialGradient id="Gradiente_sem_nome_18" data-name="Gradiente sem nome 18" cx="-.37" cy="24.17" fx="-.37" fy="24.17" r=".07" gradientTransform="translate(-4955.94 479.11) rotate(86.11) scale(339.7 -206.5)" gradientUnits="userSpaceOnUse">
      <stop offset="0" stop-color="#ff4c00" stop-opacity="0"/>
      <stop offset=".99" stop-color="#ff4c00" stop-opacity=".99"/>
      <stop offset="1" stop-color="#ff4c00"/>
    </radialGradient>
  </defs>
  <g class="cls-24">
    <g class="cls-23">
      <rect class="cls-16" width="32" height="24"/>
      <path class="cls-7" d="M1.75,16.38L29.29,0H0v15.38c0,.9.98,1.46,1.75,1Z"/>
      <g>
        <path class="cls-21" d="M24.73,8.52c.15-7.37-11.04-6.35-8.17-19.17,0,0-7.51,2.96-6.19,12.03.45,3.12-.64,5.45-.64,5.45-1.11.23-2.82-1.97-2.22-5.37,0,0-3.94,2.94-3.94,6.73s1.83,7.79,1.83,7.79C.85,15,1.3,8.87,1.3,8.87c0,0-2.88,3.85-2.88,11.11,0,5.65,6.37,14.67,16.64,14.67s18.52-7.97,18.52-15.05c0-3.1-1.05-7.11-3.33-9.3,0,0,.31,6.19-2.76,5.9,0,0,2.53-8.09-.12-11.79,0,0-1.28,4-2.64,4.12Z"/>
        <path class="cls-6" d="M24.75,2.97c2.98-5.5-4.41-6.26-4.42-9.64,0,0-1.31,3.49,1.81,5.87,2.54,1.93,2.61,3.77,2.61,3.77Z"/>
        <path class="cls-3" d="M9.05-7.56C7.92-6.44,9.48-1.81,5.94.01c0,0-1.2-5.08,3.12-7.57Z"/>
        <path class="cls-8" d="M.75,10.72c-.99,1.69-2.33,4.82-2.33,9.26,0,4.96,6.31,14.07,16.64,14.07s17.92-7.77,17.92-14.44c0-2.41-.67-5.49-2.14-7.67-.11,1.37-.44,3.24-1.47,4.21-.53.51-1.2.73-1.93.65l-.75-.07.23-.71c.03-.07,1.96-6.38.56-10.12-.56,1.37-1.52,3.14-2.69,3.24l-.67.05v-.67c.07-2.76-1.63-4.22-3.58-5.91-2.8-2.42-5.95-5.17-4.8-12.14-1.95,1.15-5.73,4.3-4.78,10.82.48,3.26-.65,5.69-.69,5.8l-.13.28-.29.05c-.56.11-1.15-.12-1.68-.63-.72-.71-1.37-2.04-1.4-3.85-1.09,1.12-2.6,3.05-2.6,5.25,0,3.61,1.76,7.5,1.77,7.54l.49,1.09-1.17-.25c-3.06-.67-4.21-3.52-4.5-5.85Z"/>
        <path class="cls-11" d="M20.32-6.68c-.27,2.01.53,4.9,1.81,5.87,1.17.89,2.49,2.42,2.6,3.77,2-3.92-.81-5.37-2.42-5.94-.68-.24-1.93-1.64-1.98-3.7Z"/>
        <path class="cls-15" d="M14.18-7.25c-4.42,6.93,1.32,14.24-1.64,18.62-2.96,4.38-5.95.33-6.15-2.41,0,0,.03,8.87,4.41,12.38,4.38,3.5-8.43,2.74-10.19-1.53,0,0,0,14.24,14.45,14.24s16.87-13.26,16.87-13.26c0,0-5.26,4.49-8.77.99,0,0,2.62-4.6,3.29-9.31,0,0-1.81,1.15-4.6.71,0,0,1.55-6.62-1.61-8.79-4.05-2.78-7.47-9.42-6.06-11.63Z"/>
        <path class="cls-19" d="M15.29.9c-2.32,3.05,2.2,10.88-2.54,13.99-2.62,1.72-4.13-.35-4.13-.35,0,0,.71,3.17,3.53,5.99,2.82,2.82-4.25,6.65-9.99,1.71,0,0,1.97,11.87,15.33,9.87,14.75-2.2,13.65-13.16,13.65-13.16,0,0-4,6.29-9.68,3.28,0,0,3.58-5,3.58-7.86,0,0-2.42,1.44-5.2.05,0,0,1.32-6.66-.25-7.66C15.82,4.35,15.29.9,15.29.9Z"/>
        <path class="cls-4" d="M24.73,8.52c.15-7.37-11.04-6.35-8.17-19.17,0,0-7.51,2.96-6.19,12.03.45,3.12-.64,5.45-.64,5.45-1.11.23-2.82-1.97-2.22-5.37,0,0-3.94,2.94-3.94,6.73s1.83,7.79,1.83,7.79C.85,15,1.3,8.87,1.3,8.87c0,0-2.88,3.85-2.88,11.11,0,5.65,6.37,14.67,16.64,14.67s18.52-7.97,18.52-15.05c0-3.1-1.05-7.11-3.33-9.3,0,0,.31,6.19-2.76,5.9,0,0,2.53-8.09-.12-11.79,0,0-1.28,4-2.64,4.12Z"/>
        <path class="cls-22" d="M24.73,8.52c.15-7.37-11.04-6.35-8.17-19.17,0,0-7.51,2.96-6.19,12.03.45,3.12-.64,5.45-.64,5.45-1.11.23-2.82-1.97-2.22-5.37,0,0-3.94,2.94-3.94,6.73s1.83,7.79,1.83,7.79C.85,15,1.3,8.87,1.3,8.87c0,0-2.88,3.85-2.88,11.11,0,5.65,6.37,14.67,16.64,14.67s18.52-7.97,18.52-15.05c0-3.1-1.05-7.11-3.33-9.3,0,0,.31,6.19-2.76,5.9,0,0,2.53-8.09-.12-11.79,0,0-1.28,4-2.64,4.12Z"/>
        <path class="cls-13" d="M-.67,16.89c.31,7.53,6.5,16.55,16.19,16.55s14.52-10.22,14.83-16.2c0,0-1.81,3.52-5.9,4.22-4.09.71.28-7.03-2.58-11.62,0,0-2.53,7.98-6.13,8.27-3.6.29-6.65-5.28-6.65-8.27,0,0-2.21,5.4-1.67,9.68.84,6.51-8.09-2.64-8.09-2.64Z"/>
        <path class="cls-5" d="M24.73,8.52c.15-7.37-11.04-6.35-8.17-19.17,0,0-7.51,2.96-6.19,12.03.45,3.12-.64,5.45-.64,5.45-1.11.23-2.82-1.97-2.22-5.37,0,0-3.94,2.94-3.94,6.73s1.83,7.79,1.83,7.79C.85,15,1.3,8.87,1.3,8.87c0,0-2.88,3.85-2.88,11.11,0,5.65,6.37,14.67,16.64,14.67s18.52-7.97,18.52-15.05c0-3.1-1.05-7.11-3.33-9.3,0,0,.31,6.19-2.76,5.9,0,0,2.53-8.09-.12-11.79,0,0-1.28,4-2.64,4.12Z"/>
        <path class="cls-2" d="M24.75,2.97c2.98-5.5-4.41-6.26-4.42-9.64,0,0-1.31,3.49,1.81,5.87,2.54,1.93,2.61,3.77,2.61,3.77Z"/>
        <path class="cls-12" d="M9.05-7.56c-1.12,1.12-.4,4.65-3.12,7.57,0,0-1.2-5.08,3.12-7.57Z"/>
        <path class="cls-14" d="M9.05-7.56C7.92-6.44,9.48-1.81,5.94.01c0,0-1.2-5.08,3.12-7.57Z"/>
        <path class="cls-1" d="M24.73,8.52c.15-7.37-11.04-6.35-8.17-19.17,0,0-7.51,2.96-6.19,12.03.45,3.12-.64,5.45-.64,5.45-1.11.23-2.82-1.97-2.22-5.37,0,0-3.94,2.94-3.94,6.73s1.83,7.79,1.83,7.79C.85,15,1.3,8.87,1.3,8.87c0,0-2.88,3.85-2.88,11.11,0,5.65,6.37,14.67,16.64,14.67s18.52-7.97,18.52-15.05c0-3.1-1.05-7.11-3.33-9.3,0,0,.31,6.19-2.76,5.9,0,0,2.53-8.09-.12-11.79,0,0-1.28,4-2.64,4.12Z"/>
        <path class="cls-20" d="M24.73,8.52c.15-7.37-11.04-6.35-8.17-19.17,0,0-7.51,2.96-6.19,12.03.45,3.12-.64,5.45-.64,5.45-1.11.23-2.82-1.97-2.22-5.37,0,0-3.94,2.94-3.94,6.73s1.83,7.79,1.83,7.79C.85,15,1.3,8.87,1.3,8.87c0,0-2.88,3.85-2.88,11.11,0,5.65,6.37,14.67,16.64,14.67s18.52-7.97,18.52-15.05c0-3.1-1.05-7.11-3.33-9.3,0,0,.31,6.19-2.76,5.9,0,0,2.53-8.09-.12-11.79,0,0-1.28,4-2.64,4.12Z"/>
        <path class="cls-10" d="M24.73,8.52c.15-7.37-11.04-6.35-8.17-19.17,0,0-7.51,2.96-6.19,12.03.45,3.12-.64,5.45-.64,5.45-1.11.23-2.82-1.97-2.22-5.37,0,0-3.94,2.94-3.94,6.73s1.83,7.79,1.83,7.79C.85,15,1.3,8.87,1.3,8.87c0,0-2.88,3.85-2.88,11.11,0,5.65,6.37,14.67,16.64,14.67s18.52-7.97,18.52-15.05c0-3.1-1.05-7.11-3.33-9.3,0,0,.31,6.19-2.76,5.9,0,0,2.53-8.09-.12-11.79,0,0-1.28,4-2.64,4.12Z"/>
        <path class="cls-17" d="M24.73,8.52c.15-7.37-11.04-6.35-8.17-19.17,0,0-7.51,2.96-6.19,12.03.45,3.12-.64,5.45-.64,5.45-1.11.23-2.82-1.97-2.22-5.37,0,0-3.94,2.94-3.94,6.73s1.83,7.79,1.83,7.79C.85,15,1.3,8.87,1.3,8.87c0,0-2.88,3.85-2.88,11.11,0,5.65,6.37,14.67,16.64,14.67s18.52-7.97,18.52-15.05c0-3.1-1.05-7.11-3.33-9.3,0,0,.31,6.19-2.76,5.9,0,0,2.53-8.09-.12-11.79,0,0-1.28,4-2.64,4.12Z"/>
      </g>
      <path class="cls-18" d="M8.26,1.68c-1.5,0-2.71,1.21-2.71,2.71v13.16c0,1.5,1.21,2.71,2.71,2.71h6.85c-.26-.4-.47-.84-.64-1.29h-6.21c-.78,0-1.42-.64-1.42-1.42V4.39c0-.78.64-1.42,1.42-1.42h13.16c.78,0,1.42.64,1.42,1.42v5.88c.45.15.89.34,1.29.58v-6.45c0-1.5-1.21-2.71-2.71-2.71h-13.16Z"/>
      <path class="cls-18" d="M15.11,13.03c-.26.4-.47.83-.64,1.29h-6.21c-.36,0-.65-.29-.65-.65s.29-.65.65-.65h6.85Z"/>
      <path class="cls-18" d="M19.49,4.39c0-.36-.29-.65-.65-.65s-.65.29-.65.65v1.42h-1.42c-.36,0-.65.29-.65.65s.29.65.65.65h1.42v1.42c0,.36.29.65.65.65s.65-.29.65-.65v-1.42h1.42c.36,0,.65-.29.65-.65s-.29-.65-.65-.65h-1.42v-1.42Z"/>
      <path class="cls-18" d="M13.12,4.14c-.1-.24-.34-.4-.6-.4-.26,0-.5.16-.6.4l-2.45,5.94c-.14.33.02.71.35.84.33.14.71-.02.84-.35l.36-.88h2.98l.37.88c.14.33.51.49.84.35.33-.14.49-.51.35-.84l-2.45-5.94ZM13.48,8.4h-1.92l.96-2.32.96,2.32Z"/>
      <path class="cls-18" d="M7.62,16.77c0-.36.29-.65.65-.65h4.13c.36,0,.65.29.65.65s-.29.65-.65.65h-4.13c-.36,0-.65-.29-.65-.65Z"/>
      <path class="cls-18" d="M26.45,16.65c0,3.14-2.54,5.68-5.68,5.68s-5.68-2.54-5.68-5.68,2.54-5.68,5.68-5.68,5.68,2.54,5.68,5.68ZM21.28,13.03c0-.29-.23-.52-.52-.52s-.52.23-.52.52v3.1h-3.1c-.29,0-.52.23-.52.52s.23.52.52.52h3.1v3.1c0,.29.23.52.52.52s.52-.23.52-.52v-3.1h3.1c.29,0,.52-.23.52-.52s-.23-.52-.52-.52h-3.1v-3.1Z"/>
    </g>
  </g>
</svg>