<?xml version="1.0" encoding="UTF-8"?>
<svg xmlns="http://www.w3.org/2000/svg" viewBox="0 0 32 24">
  <defs>
    <style>
      .cls-1 {
        fill: #4ade80;
      }

      .cls-1, .cls-2, .cls-3 {
        stroke-width: 0px;
      }

      .cls-2 {
        fill: #212121;
      }

      .cls-3 {
        fill: #22c55e;
      }
    </style>
  </defs>
  <g id="Camada_3" data-name="Camada 3">
    <rect class="cls-3" width="32" height="24"/>
  </g>
  <g id="Camada_4" data-name="Camada 4">
    <path class="cls-1" d="M1.75,16.38L29.29,0H0v15.38c0,.9.98,1.46,1.75,1Z"/>
  </g>
  <g id="Camada_2" data-name="Camada 2">
    <path class="cls-2" d="M8.26,1.68c-1.5,0-2.71,1.21-2.71,2.71v13.16c0,1.5,1.21,2.71,2.71,2.71h6.85c-.26-.4-.47-.84-.64-1.29h-6.21c-.78,0-1.42-.64-1.42-1.42V4.39c0-.78.64-1.42,1.42-1.42h13.16c.78,0,1.42.64,1.42,1.42v5.88c.45.15.89.34,1.29.58v-6.45c0-1.5-1.21-2.71-2.71-2.71h-13.16Z"/>
    <path class="cls-2" d="M15.11,13.03c-.26.4-.47.83-.64,1.29h-6.21c-.36,0-.65-.29-.65-.65s.29-.65.65-.65h6.85Z"/>
    <path class="cls-2" d="M19.49,4.39c0-.36-.29-.65-.65-.65s-.65.29-.65.65v1.42h-1.42c-.36,0-.65.29-.65.65s.29.65.65.65h1.42v1.42c0,.36.29.65.65.65s.65-.29.65-.65v-1.42h1.42c.36,0,.65-.29.65-.65s-.29-.65-.65-.65h-1.42v-1.42Z"/>
    <path class="cls-2" d="M13.12,4.14c-.1-.24-.34-.4-.6-.4-.26,0-.5.16-.6.4l-2.45,5.94c-.14.33.02.71.35.84.33.14.71-.02.84-.35l.36-.88h2.98l.37.88c.14.33.51.49.84.35.33-.14.49-.51.35-.84l-2.45-5.94ZM13.48,8.4h-1.92l.96-2.32.96,2.32Z"/>
    <path class="cls-2" d="M7.62,16.77c0-.36.29-.65.65-.65h4.13c.36,0,.65.29.65.65s-.29.65-.65.65h-4.13c-.36,0-.65-.29-.65-.65Z"/>
    <path class="cls-2" d="M26.45,16.65c0,3.14-2.54,5.68-5.68,5.68s-5.68-2.54-5.68-5.68,2.54-5.68,5.68-5.68,5.68,2.54,5.68,5.68ZM21.28,13.03c0-.29-.23-.52-.52-.52s-.52.23-.52.52v3.1h-3.1c-.29,0-.52.23-.52.52s.23.52.52.52h3.1v3.1c0,.29.23.52.52.52s.52-.23.52-.52v-3.1h3.1c.29,0,.52-.23.52-.52s-.23-.52-.52-.52h-3.1v-3.1Z"/>
  </g>
</svg>